Coordinates
version=1
nRows=29
nColumns=22
inDegrees=yes

Units are S.I. units (second, meters, Newtons, ...)
If the header above contains a line with 'inDegrees', this indicates whether rotational values are in degrees (yes) or radians (no).

endheader
time	pelvis_tilt	pelvis_list	pelvis_rotation	pelvis_tx	pelvis_ty	pelvis_tz	hip_flexion_r	hip_adduction_r	hip_rotation_r	knee_angle_r	ankle_angle_r	subtalar_angle_r	hip_flexion_l	hip_adduction_l	hip_rotation_l	knee_angle_l	ankle_angle_l	subtalar_angle_l	lumbar_extension	lumbar_bending	lumbar_rotation
      3.76000000	      1.64368397	     -0.96382554	     62.72244357	      0.35141184	      0.93240911	     -0.26362533	     26.36276066	      1.16025172	      5.49346375	    -16.58335351	      8.32789168	      7.19016916	     -2.67115595	      6.81638381	     13.16504548	    -21.35844988	     17.38239195	    -10.50915241	     -7.34808517	      0.33314041	     -5.46355778
      3.77000000	      1.65316056	     -1.01444880	     63.11293111	      0.35636627	      0.93128106	     -0.27037374	     26.24934897	      1.34184996	      5.30727544	    -15.95420207	      8.31312919	      7.04265258	     -3.01081092	      6.67228186	     13.42690458	    -21.69161298	     17.62801415	    -10.40314489	     -7.26173570	      0.39126740	     -5.65121323
      3.78000000	      1.65467470	     -1.04809467	     63.49307645	      0.36138278	      0.93020263	     -0.27721391	     26.15327530	      1.52469126	      5.10387999	    -15.65915805	      8.22708996	      6.54676696	     -3.35790284	      6.53779737	     13.68375415	    -22.04231556	     17.84692182	    -10.12250489	     -7.17714347	      0.43112485	     -5.83807726
      3.79000000	      1.64745676	     -1.12722431	     63.87346645	      0.36640639	      0.92908878	     -0.28413192	     26.14258705	      1.72334685	      4.90050706	    -15.68890548	      8.00484834	      6.05145930	     -3.63398632	      6.39345122	     13.96743476	    -22.44334532	     18.03064058	     -9.93818976	     -7.03209207	      0.49076010	     -6.00926994
      3.80000000	      1.64965724	     -1.21778897	     64.23956955	      0.37149785	      0.92802881	     -0.29114436	     26.15832213	      1.94369458	      4.74136277	    -15.98252804	      7.62907548	      5.45908614	     -3.89215778	      6.23230928	     14.24893051	    -22.87245190	     18.16953167	     -9.70486505	     -6.86644630	      0.56453941	     -6.17580567
      3.81000000	      1.66587145	     -1.32762154	     64.59774696	      0.37661752	      0.92703308	     -0.29825481	     26.19405773	      2.18755691	      4.68757871	    -16.47757166	      7.07707385	      4.76669021	     -4.11286438	      6.05066695	     14.52064003	    -23.34969864	     18.25374934	     -9.41432145	     -6.67495167	      0.66965309	     -6.32527398
      3.82000000	      1.70986249	     -1.45598207	     64.93757436	      0.38178846	      0.92613738	     -0.30544740	     26.24333904	      2.46787671	      4.72119698	    -17.12233117	      6.34421472	      4.04724836	     -4.29566229	      5.83935253	     14.77090601	    -23.88621456	     18.28044809	     -9.07785198	     -6.46876966	      0.81236893	     -6.44990322
      3.83000000	      1.78794124	     -1.59515355	     65.24991815	      0.38701854	      0.92538682	     -0.31272400	     26.29461501	      2.78861720	      4.83911461	    -17.86821156	      5.46224398	      3.27564835	     -4.44542121	      5.59940530	     14.99287303	    -24.48931487	     18.21708850	     -8.65595321	     -6.25675906	      0.99787202	     -6.53463362
      3.84000000	      1.91516088	     -1.75053518	     65.54419525	      0.39227422	      0.92479609	     -0.32010388	     26.34969372	      3.15072321	      4.95483211	    -18.68103689	      4.53053812	      2.58930663	     -4.54665756	      5.31622215	     15.15659015	    -25.18587545	     18.08815608	     -8.17823883	     -6.04023836	      1.24978332	     -6.59902341
      3.85000000	      2.08932071	     -1.90856541	     65.81183388	      0.39755519	      0.92440784	     -0.32757841	     26.39018762	      3.54468967	      5.04281966	    -19.52356413	      3.62821669	      1.99690719	     -4.60408119	      5.00029473	     15.25423568	    -25.98380535	     17.84966309	     -7.60521100	     -5.83360981	      1.55742919	     -6.63082317
      3.86000000	      2.30563102	     -2.06180479	     66.05532434	      0.40283953	      0.92422727	     -0.33514044	     26.40624224	      3.95315980	      5.05381107	    -20.37559635	      2.85176425	      1.56622597	     -4.60559367	      4.65811934	     15.25975651	    -26.90423606	     17.50478450	     -6.95188794	     -5.64444821	      1.91450611	     -6.64108317
      3.87000000	      2.53932897	     -2.19910363	     66.27218391	      0.40810024	      0.92426994	     -0.34278451	     26.38461498	      4.34477310	      4.97787670	    -21.20918424	      2.25699441	      1.23904202	     -4.54938259	      4.32047149	     15.18942086	    -27.94332592	     17.00210197	     -6.11419351	     -5.47373181	      2.29038927	     -6.62045072
      3.88000000	      2.78681568	     -2.31329724	     66.47488458	      0.41328954	      0.92452337	     -0.35047130	     26.31112026	      4.70448123	      4.79467488	    -22.00455133	      1.86800910	      1.08082722	     -4.41144479	      3.98786029	     15.01106171	    -29.13689136	     16.34789472	     -5.14162263	     -5.33392074	      2.67876418	     -6.58917455
      3.89000000	      3.02720043	     -2.40141641	     66.66151750	      0.41840216	      0.92497763	     -0.35816962	     26.17268882	      5.01709865	      4.52466441	    -22.73074488	      1.69837901	      1.05798317	     -4.17931823	      3.68025813	     14.74553116	    -30.48518576	     15.50920273	     -3.92925307	     -5.22162176	      3.05078196	     -6.52213273
      3.90000000	      3.25300015	     -2.45269790	     66.84917000	      0.42339149	      0.92562638	     -0.36582218	     25.94899143	      5.27421331	      4.20278717	    -23.36121559	      1.69647293	      1.15904175	     -3.83099199	      3.39458149	     14.35681318	    -32.01414309	     14.48183511	     -2.49214441	     -5.15196873	      3.39498611	     -6.46150465
      3.91000000	      3.46561095	     -2.49540539	     67.05158655	      0.42824704	      0.92639382	     -0.37338287	     25.66993037	      5.49109677	      3.80576637	    -23.89556456	      1.81400663	      1.31519088	     -3.32146661	      3.10782522	     13.85286102	    -33.73862513	     13.29795810	     -0.85527582	     -5.09800517	      3.71851092	     -6.39236701
      3.92000000	      3.64448142	     -2.49953994	     67.26079899	      0.43298401	      0.92731261	     -0.38082182	     25.28365669	      5.65559444	      3.41802480	    -24.28062885	      2.02147547	      1.47900185	     -2.67615018	      2.83998126	     13.22918044	    -35.63218623	     11.95032673	      1.06196452	     -5.08456358	      3.97978605	     -6.29937959
      3.93000000	      3.80459583	     -2.47811745	     67.48012141	      0.43762822	      0.92832035	     -0.38808930	     24.82420271	      5.79904527	      3.04233909	    -24.56282446	      2.29371345	      1.58956222	     -1.89098396	      2.55489165	     12.48997580	    -37.67787716	     10.50716027	      3.20446978	     -5.10870357	      4.19542215	     -6.19567604
      3.94000000	      3.93928875	     -2.44405858	     67.71082992	      0.44218667	      0.92937218	     -0.39517716	     24.29708168	      5.92057727	      2.66481555	    -24.71797156	      2.59295030	      1.60647294	     -0.95301933	      2.23840703	     11.62369080	    -39.85769740	      9.04921836	      5.48525443	     -5.14982258	      4.36022862	     -6.05601917
      3.95000000	      4.06485308	     -2.39598570	     67.94749506	      0.44669801	      0.93044034	     -0.40205898	     23.70540233	      6.04589562	      2.30916954	    -24.76755341	      2.92552183	      1.51555806	      0.11334700	      1.86128324	     10.63978683	    -42.13763842	      7.67573640	      7.82172485	     -5.21867336	      4.48541878	     -5.88062348
      3.96000000	      4.18182905	     -2.32986803	     68.20392866	      0.45114768	      0.93150867	     -0.40873121	     23.04923321	      6.17325300	      1.98850556	    -24.71789031	      3.29670274	      1.31346413	      1.28406685	      1.42265082	      9.58719871	    -44.48125527	      6.46688802	     10.09225104	     -5.31953533	      4.56789599	     -5.69376509
      3.97000000	      4.31494511	     -2.29947804	     68.46716588	      0.45555513	      0.93245727	     -0.41512629	     22.41822185	      6.34523262	      1.65929074	    -24.63415064	      3.65728948	      1.03785480	      2.60643037	      0.86487253	      8.44954312	    -46.89069907	      5.50159303	     12.02817156	     -5.41074086	      4.65533010	     -5.45362919
      3.98000000	      4.46562366	     -2.26282494	     68.74123261	      0.45987428	      0.93335718	     -0.42131299	     21.75868106	      6.54122428	      1.34908159	    -24.50317819	      4.03389904	      0.71133471	      3.99924909	      0.21054140	      7.27050043	    -49.30114579	      4.77776744	     13.51144409	     -5.53450718	      4.74406807	     -5.19171036
      3.99000000	      4.64119525	     -2.25324892	     69.01156560	      0.46416456	      0.93415309	     -0.42727595	     21.12181084	      6.78280226	      1.03561213	    -24.35332013	      4.41171043	      0.39114942	      5.47316626	     -0.56317055	      6.05770247	    -51.67926486	      4.30330322	     14.32277834	     -5.65207304	      4.84641610	     -4.88610654
      4.00000000	      4.84791892	     -2.22395072	     69.27275141	      0.46839438	      0.93492973	     -0.43302792	     20.47213326	      7.06338997	      0.77220653	    -24.21211417	      4.77053768	      0.11872306	      6.95020251	     -1.42072287	      4.86558733	    -53.97730571	      4.03681768	     14.47810314	     -5.82488611	      4.95868808	     -4.53694090
      4.01000000	      5.02837598	     -2.22723795	     69.51868841	      0.47256570	      0.93560988	     -0.43864551	     19.87138261	      7.33974645	      0.54408620	    -24.06375059	      5.16939947	     -0.24614035	      8.48101343	     -2.30942238	      3.70346667	    -56.15016464	      3.90953761	     14.03478713	     -5.95243225	      5.04663324	     -4.16965013
      4.02000000	      5.21273931	     -2.20598426	     69.73038211	      0.47667714	      0.93631716	     -0.44414734	     19.25900468	      7.62573493	      0.37571579	    -23.92445598	      5.54261546	     -0.57540932	      9.96167466	     -3.21793802	      2.58100138	    -58.14815609	      3.87987744	     12.93340355	     -6.11516916	      5.12473438	     -3.76231068
      4.03000000	      5.38089604	     -2.16475638	     69.91033961	      0.48071787	      0.93706063	     -0.44957639	     18.63693749	      7.89806564	      0.25680732	    -23.78150619	      5.90055088	     -0.85812897	     11.38465781	     -4.10937134	      1.52040473	    -59.94108889	      3.94360971	     11.45871565	     -6.29315063	      5.17533436	     -3.31377300
      4.04000000	      5.52868036	     -2.11036875	     70.06085324	      0.48464075	      0.93783491	     -0.45493485	     18.02142736	      8.15064477	      0.17883817	    -23.64560564	      6.20427683	     -1.11899201	     12.75068507	     -4.96409139	      0.53216395	    -61.51725756	      4.07004974	      9.78054191	     -6.47763135	      5.20531761	     -2.82926001
